<mxfile host="app.diagrams.net" agent="Mozilla/5.0 (Macintosh; Intel Mac OS X 10_15_7) AppleWebKit/537.36 (KHTML, like Gecko) Chrome/129.0.0.0 Safari/537.36" version="24.7.17">
  <diagram id="R2lEEEUBdFMjLlhIrx00" name="Page-1">
    <mxGraphModel dx="5992" dy="2440" grid="1" gridSize="10" guides="1" tooltips="1" connect="1" arrows="1" fold="1" page="1" pageScale="1" pageWidth="850" pageHeight="1100" math="0" shadow="0" extFonts="Permanent Marker^https://fonts.googleapis.com/css?family=Permanent+Marker">
      <root>
        <mxCell id="0" />
        <mxCell id="1" parent="0" />
        <mxCell id="C-vyLk0tnHw3VtMMgP7b-1" value="" style="edgeStyle=entityRelationEdgeStyle;endArrow=ERzeroToMany;startArrow=ERone;endFill=1;startFill=0;entryX=0;entryY=0.038;entryDx=0;entryDy=0;entryPerimeter=0;exitX=1.002;exitY=0.111;exitDx=0;exitDy=0;exitPerimeter=0;" parent="1" source="C-vyLk0tnHw3VtMMgP7b-23" target="xjSPEm2n4XkuTSJkwCVt-148" edge="1">
          <mxGeometry width="100" height="100" relative="1" as="geometry">
            <mxPoint x="340" y="1370" as="sourcePoint" />
            <mxPoint x="-370" y="1230" as="targetPoint" />
          </mxGeometry>
        </mxCell>
        <mxCell id="C-vyLk0tnHw3VtMMgP7b-12" value="" style="edgeStyle=entityRelationEdgeStyle;endArrow=ERzeroToMany;startArrow=ERone;endFill=1;startFill=0;entryX=0;entryY=0.5;entryDx=0;entryDy=0;exitX=1.009;exitY=0.054;exitDx=0;exitDy=0;exitPerimeter=0;" parent="1" source="xjSPEm2n4XkuTSJkwCVt-148" edge="1">
          <mxGeometry width="100" height="100" relative="1" as="geometry">
            <mxPoint x="-120" y="1145" as="sourcePoint" />
            <mxPoint x="70" y="585" as="targetPoint" />
          </mxGeometry>
        </mxCell>
        <mxCell id="C-vyLk0tnHw3VtMMgP7b-13" value="Labs" style="shape=table;startSize=30;container=1;collapsible=1;childLayout=tableLayout;fixedRows=1;rowLines=0;fontStyle=1;align=center;resizeLast=1;" parent="1" vertex="1">
          <mxGeometry x="660" y="1220" width="250" height="160" as="geometry" />
        </mxCell>
        <mxCell id="C-vyLk0tnHw3VtMMgP7b-14" value="" style="shape=partialRectangle;collapsible=0;dropTarget=0;pointerEvents=0;fillColor=none;points=[[0,0.5],[1,0.5]];portConstraint=eastwest;top=0;left=0;right=0;bottom=1;" parent="C-vyLk0tnHw3VtMMgP7b-13" vertex="1">
          <mxGeometry y="30" width="250" height="60" as="geometry" />
        </mxCell>
        <mxCell id="C-vyLk0tnHw3VtMMgP7b-15" value="PK" style="shape=partialRectangle;overflow=hidden;connectable=0;fillColor=none;top=0;left=0;bottom=0;right=0;fontStyle=1;" parent="C-vyLk0tnHw3VtMMgP7b-14" vertex="1">
          <mxGeometry width="30" height="60" as="geometry">
            <mxRectangle width="30" height="60" as="alternateBounds" />
          </mxGeometry>
        </mxCell>
        <mxCell id="C-vyLk0tnHw3VtMMgP7b-16" value="ADMID: varchar(64)&#xa;PATIENTID: varchar(64)&#xa;RES_DATE: int&#xa;RES_TIME: time" style="shape=partialRectangle;overflow=hidden;connectable=0;fillColor=none;top=0;left=0;bottom=0;right=0;align=left;spacingLeft=6;fontStyle=5;" parent="C-vyLk0tnHw3VtMMgP7b-14" vertex="1">
          <mxGeometry x="30" width="220" height="60" as="geometry">
            <mxRectangle width="220" height="60" as="alternateBounds" />
          </mxGeometry>
        </mxCell>
        <mxCell id="C-vyLk0tnHw3VtMMgP7b-20" value="" style="shape=partialRectangle;collapsible=0;dropTarget=0;pointerEvents=0;fillColor=none;points=[[0,0.5],[1,0.5]];portConstraint=eastwest;top=0;left=0;right=0;bottom=0;" parent="C-vyLk0tnHw3VtMMgP7b-13" vertex="1">
          <mxGeometry y="90" width="250" height="70" as="geometry" />
        </mxCell>
        <mxCell id="C-vyLk0tnHw3VtMMgP7b-21" value="" style="shape=partialRectangle;overflow=hidden;connectable=0;fillColor=none;top=0;left=0;bottom=0;right=0;" parent="C-vyLk0tnHw3VtMMgP7b-20" vertex="1">
          <mxGeometry width="30" height="70" as="geometry">
            <mxRectangle width="30" height="70" as="alternateBounds" />
          </mxGeometry>
        </mxCell>
        <mxCell id="C-vyLk0tnHw3VtMMgP7b-22" value="AGE_GRP_AT_RES    varchar(20)             &#xa;TEST    varchar(100)  &#xa;ORD_VALUE    decimal(10,5)  &#xa;REFERENCE_UNIT    varchar(20) " style="shape=partialRectangle;overflow=hidden;connectable=0;fillColor=none;top=0;left=0;bottom=0;right=0;align=left;spacingLeft=6;" parent="C-vyLk0tnHw3VtMMgP7b-20" vertex="1">
          <mxGeometry x="30" width="220" height="70" as="geometry">
            <mxRectangle width="220" height="70" as="alternateBounds" />
          </mxGeometry>
        </mxCell>
        <mxCell id="C-vyLk0tnHw3VtMMgP7b-23" value="Demographics(Demog)" style="shape=table;startSize=30;container=1;collapsible=1;childLayout=tableLayout;fixedRows=1;rowLines=0;fontStyle=1;align=center;resizeLast=1;" parent="1" vertex="1">
          <mxGeometry x="-810" y="928" width="260" height="140.00000000000182" as="geometry" />
        </mxCell>
        <mxCell id="C-vyLk0tnHw3VtMMgP7b-24" value="" style="shape=partialRectangle;collapsible=0;dropTarget=0;pointerEvents=0;fillColor=none;points=[[0,0.5],[1,0.5]];portConstraint=eastwest;top=0;left=0;right=0;bottom=1;" parent="C-vyLk0tnHw3VtMMgP7b-23" vertex="1">
          <mxGeometry y="30" width="260" height="30" as="geometry" />
        </mxCell>
        <mxCell id="C-vyLk0tnHw3VtMMgP7b-25" value="PK" style="shape=partialRectangle;overflow=hidden;connectable=0;fillColor=none;top=0;left=0;bottom=0;right=0;fontStyle=1;" parent="C-vyLk0tnHw3VtMMgP7b-24" vertex="1">
          <mxGeometry width="30" height="30" as="geometry">
            <mxRectangle width="30" height="30" as="alternateBounds" />
          </mxGeometry>
        </mxCell>
        <mxCell id="C-vyLk0tnHw3VtMMgP7b-26" value="PATIENTID: varchar(64)" style="shape=partialRectangle;overflow=hidden;connectable=0;fillColor=none;top=0;left=0;bottom=0;right=0;align=left;spacingLeft=6;fontStyle=5;" parent="C-vyLk0tnHw3VtMMgP7b-24" vertex="1">
          <mxGeometry x="30" width="230" height="30" as="geometry">
            <mxRectangle width="230" height="30" as="alternateBounds" />
          </mxGeometry>
        </mxCell>
        <mxCell id="C-vyLk0tnHw3VtMMgP7b-27" value="" style="shape=partialRectangle;collapsible=0;dropTarget=0;pointerEvents=0;fillColor=none;points=[[0,0.5],[1,0.5]];portConstraint=eastwest;top=0;left=0;right=0;bottom=0;" parent="C-vyLk0tnHw3VtMMgP7b-23" vertex="1">
          <mxGeometry y="60" width="260" height="80" as="geometry" />
        </mxCell>
        <mxCell id="C-vyLk0tnHw3VtMMgP7b-28" value="" style="shape=partialRectangle;overflow=hidden;connectable=0;fillColor=none;top=0;left=0;bottom=0;right=0;" parent="C-vyLk0tnHw3VtMMgP7b-27" vertex="1">
          <mxGeometry width="30" height="80" as="geometry">
            <mxRectangle width="30" height="80" as="alternateBounds" />
          </mxGeometry>
        </mxCell>
        <mxCell id="C-vyLk0tnHw3VtMMgP7b-29" value="GENDER: int&#xa;PCODE_AREA: varchar(10)&#xa;ETHNICITY: varchar(10)&#xa;DOD: int&#xa;AGE_GRP_AT_DEATH: varchar(20)" style="shape=partialRectangle;overflow=hidden;connectable=0;fillColor=none;top=0;left=0;bottom=0;right=0;align=left;spacingLeft=6;fontStyle=0" parent="C-vyLk0tnHw3VtMMgP7b-27" vertex="1">
          <mxGeometry x="30" width="230" height="80" as="geometry">
            <mxRectangle width="230" height="80" as="alternateBounds" />
          </mxGeometry>
        </mxCell>
        <mxCell id="xjSPEm2n4XkuTSJkwCVt-2" value="Algy" style="shape=table;startSize=30;container=1;collapsible=1;childLayout=tableLayout;fixedRows=1;rowLines=0;fontStyle=1;align=center;resizeLast=1;" vertex="1" parent="1">
          <mxGeometry x="660" y="970" width="250" height="150" as="geometry" />
        </mxCell>
        <mxCell id="xjSPEm2n4XkuTSJkwCVt-3" value="" style="shape=partialRectangle;collapsible=0;dropTarget=0;pointerEvents=0;fillColor=none;points=[[0,0.5],[1,0.5]];portConstraint=eastwest;top=0;left=0;right=0;bottom=1;" vertex="1" parent="xjSPEm2n4XkuTSJkwCVt-2">
          <mxGeometry y="30" width="250" height="50" as="geometry" />
        </mxCell>
        <mxCell id="xjSPEm2n4XkuTSJkwCVt-4" value="PK" style="shape=partialRectangle;overflow=hidden;connectable=0;fillColor=none;top=0;left=0;bottom=0;right=0;fontStyle=1;" vertex="1" parent="xjSPEm2n4XkuTSJkwCVt-3">
          <mxGeometry width="30" height="50" as="geometry">
            <mxRectangle width="30" height="50" as="alternateBounds" />
          </mxGeometry>
        </mxCell>
        <mxCell id="xjSPEm2n4XkuTSJkwCVt-5" value="ADMID: varchar(64)   &#xa;PATIENTID: varchar(64)     &#xa;ALGY_DATE: int" style="shape=partialRectangle;overflow=hidden;connectable=0;fillColor=none;top=0;left=0;bottom=0;right=0;align=left;spacingLeft=6;fontStyle=5;" vertex="1" parent="xjSPEm2n4XkuTSJkwCVt-3">
          <mxGeometry x="30" width="220" height="50" as="geometry">
            <mxRectangle width="220" height="50" as="alternateBounds" />
          </mxGeometry>
        </mxCell>
        <mxCell id="xjSPEm2n4XkuTSJkwCVt-9" value="" style="shape=partialRectangle;collapsible=0;dropTarget=0;pointerEvents=0;fillColor=none;points=[[0,0.5],[1,0.5]];portConstraint=eastwest;top=0;left=0;right=0;bottom=0;" vertex="1" parent="xjSPEm2n4XkuTSJkwCVt-2">
          <mxGeometry y="80" width="250" height="70" as="geometry" />
        </mxCell>
        <mxCell id="xjSPEm2n4XkuTSJkwCVt-10" value="" style="shape=partialRectangle;overflow=hidden;connectable=0;fillColor=none;top=0;left=0;bottom=0;right=0;" vertex="1" parent="xjSPEm2n4XkuTSJkwCVt-9">
          <mxGeometry width="30" height="70" as="geometry">
            <mxRectangle width="30" height="70" as="alternateBounds" />
          </mxGeometry>
        </mxCell>
        <mxCell id="xjSPEm2n4XkuTSJkwCVt-11" value="AGE_GRP_AT_ALGY: varchar(20)           &#xa;ALLERGEN_TYPE: varchar(50)  &#xa;ALLERGEN: varchar(255)    &#xa;REACTION: varchar(255)" style="shape=partialRectangle;overflow=hidden;connectable=0;fillColor=none;top=0;left=0;bottom=0;right=0;align=left;spacingLeft=6;" vertex="1" parent="xjSPEm2n4XkuTSJkwCVt-9">
          <mxGeometry x="30" width="220" height="70" as="geometry">
            <mxRectangle width="220" height="70" as="alternateBounds" />
          </mxGeometry>
        </mxCell>
        <mxCell id="xjSPEm2n4XkuTSJkwCVt-12" value="Meds" style="shape=table;startSize=30;container=1;collapsible=1;childLayout=tableLayout;fixedRows=1;rowLines=0;fontStyle=1;align=center;resizeLast=1;" vertex="1" parent="1">
          <mxGeometry x="660" y="610" width="279.9999999999998" height="280.00000000000045" as="geometry" />
        </mxCell>
        <mxCell id="xjSPEm2n4XkuTSJkwCVt-13" value="" style="shape=partialRectangle;collapsible=0;dropTarget=0;pointerEvents=0;fillColor=none;points=[[0,0.5],[1,0.5]];portConstraint=eastwest;top=0;left=0;right=0;bottom=1;" vertex="1" parent="xjSPEm2n4XkuTSJkwCVt-12">
          <mxGeometry y="30" width="279.9999999999998" height="80" as="geometry" />
        </mxCell>
        <mxCell id="xjSPEm2n4XkuTSJkwCVt-14" value="PK" style="shape=partialRectangle;overflow=hidden;connectable=0;fillColor=none;top=0;left=0;bottom=0;right=0;fontStyle=1;" vertex="1" parent="xjSPEm2n4XkuTSJkwCVt-13">
          <mxGeometry width="30" height="80" as="geometry">
            <mxRectangle width="30" height="80" as="alternateBounds" />
          </mxGeometry>
        </mxCell>
        <mxCell id="xjSPEm2n4XkuTSJkwCVt-15" value="ADMID: varchar(64)&#xa;PATIENTID: varchar(64) &#xa;MEDICATION: varchar(100)&#xa;SCHED_START_DATE: int&#xa;SCHED_START_TIME:time " style="shape=partialRectangle;overflow=hidden;connectable=0;fillColor=none;top=0;left=0;bottom=0;right=0;align=left;spacingLeft=6;fontStyle=1;" vertex="1" parent="xjSPEm2n4XkuTSJkwCVt-13">
          <mxGeometry x="30" width="249.99999999999977" height="80" as="geometry">
            <mxRectangle width="249.99999999999977" height="80" as="alternateBounds" />
          </mxGeometry>
        </mxCell>
        <mxCell id="xjSPEm2n4XkuTSJkwCVt-19" value="" style="shape=partialRectangle;collapsible=0;dropTarget=0;pointerEvents=0;fillColor=none;points=[[0,0.5],[1,0.5]];portConstraint=eastwest;top=0;left=0;right=0;bottom=0;" vertex="1" parent="xjSPEm2n4XkuTSJkwCVt-12">
          <mxGeometry y="110" width="279.9999999999998" height="170" as="geometry" />
        </mxCell>
        <mxCell id="xjSPEm2n4XkuTSJkwCVt-20" value="" style="shape=partialRectangle;overflow=hidden;connectable=0;fillColor=none;top=0;left=0;bottom=0;right=0;" vertex="1" parent="xjSPEm2n4XkuTSJkwCVt-19">
          <mxGeometry width="30" height="170" as="geometry">
            <mxRectangle width="30" height="170" as="alternateBounds" />
          </mxGeometry>
        </mxCell>
        <mxCell id="xjSPEm2n4XkuTSJkwCVt-21" value="MED_ROUTE: varchar(50)&#xa;AGE_GRP_AT_SCHED_START: varchar(20)            &#xa;SCHED_END_DATE: int            &#xa;SCHED_END_TIME: time            &#xa;AGE_GRP_AT_SCHED_END: varchar(20)           &#xa;DISCON_DATE: int    &#xa;DISCON_TIME : time      &#xa;AGE_GRP_AT_DISCONTINUE: varchar(20)     &#xa;FREQUENCY: varchar(50)         &#xa;DOSE : decimal(10,5)        &#xa;DOSE_UNIT: varchar(20)" style="shape=partialRectangle;overflow=hidden;connectable=0;fillColor=none;top=0;left=0;bottom=0;right=0;align=left;spacingLeft=6;" vertex="1" parent="xjSPEm2n4XkuTSJkwCVt-19">
          <mxGeometry x="30" width="249.99999999999977" height="170" as="geometry">
            <mxRectangle width="249.99999999999977" height="170" as="alternateBounds" />
          </mxGeometry>
        </mxCell>
        <mxCell id="xjSPEm2n4XkuTSJkwCVt-32" value="Obs" style="shape=table;startSize=30;container=1;collapsible=1;childLayout=tableLayout;fixedRows=1;rowLines=0;fontStyle=1;align=center;resizeLast=1;" vertex="1" parent="1">
          <mxGeometry x="70" y="50" width="250" height="120" as="geometry" />
        </mxCell>
        <mxCell id="xjSPEm2n4XkuTSJkwCVt-33" value="" style="shape=partialRectangle;collapsible=0;dropTarget=0;pointerEvents=0;fillColor=none;points=[[0,0.5],[1,0.5]];portConstraint=eastwest;top=0;left=0;right=0;bottom=1;" vertex="1" parent="xjSPEm2n4XkuTSJkwCVt-32">
          <mxGeometry y="30" width="250" height="30" as="geometry" />
        </mxCell>
        <mxCell id="xjSPEm2n4XkuTSJkwCVt-34" value="PK" style="shape=partialRectangle;overflow=hidden;connectable=0;fillColor=none;top=0;left=0;bottom=0;right=0;fontStyle=1;" vertex="1" parent="xjSPEm2n4XkuTSJkwCVt-33">
          <mxGeometry width="30" height="30" as="geometry">
            <mxRectangle width="30" height="30" as="alternateBounds" />
          </mxGeometry>
        </mxCell>
        <mxCell id="xjSPEm2n4XkuTSJkwCVt-35" value="order_id int NOT NULL " style="shape=partialRectangle;overflow=hidden;connectable=0;fillColor=none;top=0;left=0;bottom=0;right=0;align=left;spacingLeft=6;fontStyle=5;" vertex="1" parent="xjSPEm2n4XkuTSJkwCVt-33">
          <mxGeometry x="30" width="220" height="30" as="geometry">
            <mxRectangle width="220" height="30" as="alternateBounds" />
          </mxGeometry>
        </mxCell>
        <mxCell id="xjSPEm2n4XkuTSJkwCVt-36" value="" style="shape=partialRectangle;collapsible=0;dropTarget=0;pointerEvents=0;fillColor=none;points=[[0,0.5],[1,0.5]];portConstraint=eastwest;top=0;left=0;right=0;bottom=0;" vertex="1" parent="xjSPEm2n4XkuTSJkwCVt-32">
          <mxGeometry y="60" width="250" height="30" as="geometry" />
        </mxCell>
        <mxCell id="xjSPEm2n4XkuTSJkwCVt-37" value="" style="shape=partialRectangle;overflow=hidden;connectable=0;fillColor=none;top=0;left=0;bottom=0;right=0;" vertex="1" parent="xjSPEm2n4XkuTSJkwCVt-36">
          <mxGeometry width="30" height="30" as="geometry">
            <mxRectangle width="30" height="30" as="alternateBounds" />
          </mxGeometry>
        </mxCell>
        <mxCell id="xjSPEm2n4XkuTSJkwCVt-38" value="customer_id int NOT NULL" style="shape=partialRectangle;overflow=hidden;connectable=0;fillColor=none;top=0;left=0;bottom=0;right=0;align=left;spacingLeft=6;" vertex="1" parent="xjSPEm2n4XkuTSJkwCVt-36">
          <mxGeometry x="30" width="220" height="30" as="geometry">
            <mxRectangle width="220" height="30" as="alternateBounds" />
          </mxGeometry>
        </mxCell>
        <mxCell id="xjSPEm2n4XkuTSJkwCVt-39" value="" style="shape=partialRectangle;collapsible=0;dropTarget=0;pointerEvents=0;fillColor=none;points=[[0,0.5],[1,0.5]];portConstraint=eastwest;top=0;left=0;right=0;bottom=0;" vertex="1" parent="xjSPEm2n4XkuTSJkwCVt-32">
          <mxGeometry y="90" width="250" height="20" as="geometry" />
        </mxCell>
        <mxCell id="xjSPEm2n4XkuTSJkwCVt-40" value="" style="shape=partialRectangle;overflow=hidden;connectable=0;fillColor=none;top=0;left=0;bottom=0;right=0;" vertex="1" parent="xjSPEm2n4XkuTSJkwCVt-39">
          <mxGeometry width="30" height="20" as="geometry">
            <mxRectangle width="30" height="20" as="alternateBounds" />
          </mxGeometry>
        </mxCell>
        <mxCell id="xjSPEm2n4XkuTSJkwCVt-41" value="order_date date NOT NULL" style="shape=partialRectangle;overflow=hidden;connectable=0;fillColor=none;top=0;left=0;bottom=0;right=0;align=left;spacingLeft=6;" vertex="1" parent="xjSPEm2n4XkuTSJkwCVt-39">
          <mxGeometry x="30" width="220" height="20" as="geometry">
            <mxRectangle width="220" height="20" as="alternateBounds" />
          </mxGeometry>
        </mxCell>
        <mxCell id="xjSPEm2n4XkuTSJkwCVt-42" value="Fluid" style="shape=table;startSize=30;container=1;collapsible=1;childLayout=tableLayout;fixedRows=1;rowLines=0;fontStyle=1;align=center;resizeLast=1;" vertex="1" parent="1">
          <mxGeometry x="70" y="230" width="250" height="120" as="geometry" />
        </mxCell>
        <mxCell id="xjSPEm2n4XkuTSJkwCVt-43" value="" style="shape=partialRectangle;collapsible=0;dropTarget=0;pointerEvents=0;fillColor=none;points=[[0,0.5],[1,0.5]];portConstraint=eastwest;top=0;left=0;right=0;bottom=1;" vertex="1" parent="xjSPEm2n4XkuTSJkwCVt-42">
          <mxGeometry y="30" width="250" height="30" as="geometry" />
        </mxCell>
        <mxCell id="xjSPEm2n4XkuTSJkwCVt-44" value="PK" style="shape=partialRectangle;overflow=hidden;connectable=0;fillColor=none;top=0;left=0;bottom=0;right=0;fontStyle=1;" vertex="1" parent="xjSPEm2n4XkuTSJkwCVt-43">
          <mxGeometry width="30" height="30" as="geometry">
            <mxRectangle width="30" height="30" as="alternateBounds" />
          </mxGeometry>
        </mxCell>
        <mxCell id="xjSPEm2n4XkuTSJkwCVt-45" value="order_id int NOT NULL " style="shape=partialRectangle;overflow=hidden;connectable=0;fillColor=none;top=0;left=0;bottom=0;right=0;align=left;spacingLeft=6;fontStyle=5;" vertex="1" parent="xjSPEm2n4XkuTSJkwCVt-43">
          <mxGeometry x="30" width="220" height="30" as="geometry">
            <mxRectangle width="220" height="30" as="alternateBounds" />
          </mxGeometry>
        </mxCell>
        <mxCell id="xjSPEm2n4XkuTSJkwCVt-46" value="" style="shape=partialRectangle;collapsible=0;dropTarget=0;pointerEvents=0;fillColor=none;points=[[0,0.5],[1,0.5]];portConstraint=eastwest;top=0;left=0;right=0;bottom=0;" vertex="1" parent="xjSPEm2n4XkuTSJkwCVt-42">
          <mxGeometry y="60" width="250" height="30" as="geometry" />
        </mxCell>
        <mxCell id="xjSPEm2n4XkuTSJkwCVt-47" value="" style="shape=partialRectangle;overflow=hidden;connectable=0;fillColor=none;top=0;left=0;bottom=0;right=0;" vertex="1" parent="xjSPEm2n4XkuTSJkwCVt-46">
          <mxGeometry width="30" height="30" as="geometry">
            <mxRectangle width="30" height="30" as="alternateBounds" />
          </mxGeometry>
        </mxCell>
        <mxCell id="xjSPEm2n4XkuTSJkwCVt-48" value="customer_id int NOT NULL" style="shape=partialRectangle;overflow=hidden;connectable=0;fillColor=none;top=0;left=0;bottom=0;right=0;align=left;spacingLeft=6;" vertex="1" parent="xjSPEm2n4XkuTSJkwCVt-46">
          <mxGeometry x="30" width="220" height="30" as="geometry">
            <mxRectangle width="220" height="30" as="alternateBounds" />
          </mxGeometry>
        </mxCell>
        <mxCell id="xjSPEm2n4XkuTSJkwCVt-49" value="" style="shape=partialRectangle;collapsible=0;dropTarget=0;pointerEvents=0;fillColor=none;points=[[0,0.5],[1,0.5]];portConstraint=eastwest;top=0;left=0;right=0;bottom=0;" vertex="1" parent="xjSPEm2n4XkuTSJkwCVt-42">
          <mxGeometry y="90" width="250" height="20" as="geometry" />
        </mxCell>
        <mxCell id="xjSPEm2n4XkuTSJkwCVt-50" value="" style="shape=partialRectangle;overflow=hidden;connectable=0;fillColor=none;top=0;left=0;bottom=0;right=0;" vertex="1" parent="xjSPEm2n4XkuTSJkwCVt-49">
          <mxGeometry width="30" height="20" as="geometry">
            <mxRectangle width="30" height="20" as="alternateBounds" />
          </mxGeometry>
        </mxCell>
        <mxCell id="xjSPEm2n4XkuTSJkwCVt-51" value="order_date date NOT NULL" style="shape=partialRectangle;overflow=hidden;connectable=0;fillColor=none;top=0;left=0;bottom=0;right=0;align=left;spacingLeft=6;" vertex="1" parent="xjSPEm2n4XkuTSJkwCVt-49">
          <mxGeometry x="30" width="220" height="20" as="geometry">
            <mxRectangle width="220" height="20" as="alternateBounds" />
          </mxGeometry>
        </mxCell>
        <mxCell id="xjSPEm2n4XkuTSJkwCVt-52" value="Implant" style="shape=table;startSize=30;container=1;collapsible=1;childLayout=tableLayout;fixedRows=1;rowLines=0;fontStyle=1;align=center;resizeLast=1;" vertex="1" parent="1">
          <mxGeometry x="660" y="1440" width="250" height="160" as="geometry" />
        </mxCell>
        <mxCell id="xjSPEm2n4XkuTSJkwCVt-53" value="" style="shape=partialRectangle;collapsible=0;dropTarget=0;pointerEvents=0;fillColor=none;points=[[0,0.5],[1,0.5]];portConstraint=eastwest;top=0;left=0;right=0;bottom=1;" vertex="1" parent="xjSPEm2n4XkuTSJkwCVt-52">
          <mxGeometry y="30" width="250" height="60" as="geometry" />
        </mxCell>
        <mxCell id="xjSPEm2n4XkuTSJkwCVt-54" value="PK" style="shape=partialRectangle;overflow=hidden;connectable=0;fillColor=none;top=0;left=0;bottom=0;right=0;fontStyle=1;" vertex="1" parent="xjSPEm2n4XkuTSJkwCVt-53">
          <mxGeometry width="30" height="60" as="geometry">
            <mxRectangle width="30" height="60" as="alternateBounds" />
          </mxGeometry>
        </mxCell>
        <mxCell id="xjSPEm2n4XkuTSJkwCVt-55" value="ADMID: varchar(64)        &#xa;PATIENTID: varchar(64)         &#xa;START_DATE: int       &#xa;START_TIME: time   " style="shape=partialRectangle;overflow=hidden;connectable=0;fillColor=none;top=0;left=0;bottom=0;right=0;align=left;spacingLeft=6;fontStyle=5;" vertex="1" parent="xjSPEm2n4XkuTSJkwCVt-53">
          <mxGeometry x="30" width="220" height="60" as="geometry">
            <mxRectangle width="220" height="60" as="alternateBounds" />
          </mxGeometry>
        </mxCell>
        <mxCell id="xjSPEm2n4XkuTSJkwCVt-59" value="" style="shape=partialRectangle;collapsible=0;dropTarget=0;pointerEvents=0;fillColor=none;points=[[0,0.5],[1,0.5]];portConstraint=eastwest;top=0;left=0;right=0;bottom=0;" vertex="1" parent="xjSPEm2n4XkuTSJkwCVt-52">
          <mxGeometry y="90" width="250" height="60" as="geometry" />
        </mxCell>
        <mxCell id="xjSPEm2n4XkuTSJkwCVt-60" value="" style="shape=partialRectangle;overflow=hidden;connectable=0;fillColor=none;top=0;left=0;bottom=0;right=0;" vertex="1" parent="xjSPEm2n4XkuTSJkwCVt-59">
          <mxGeometry width="30" height="60" as="geometry">
            <mxRectangle width="30" height="60" as="alternateBounds" />
          </mxGeometry>
        </mxCell>
        <mxCell id="xjSPEm2n4XkuTSJkwCVt-61" value="AGE_GRP_AT_START: varchar(20)            &#xa;END_DATE: int     &#xa;END_TIME: time   &#xa;AGE_GRP_AT_END: varchar(20)" style="shape=partialRectangle;overflow=hidden;connectable=0;fillColor=none;top=0;left=0;bottom=0;right=0;align=left;spacingLeft=6;" vertex="1" parent="xjSPEm2n4XkuTSJkwCVt-59">
          <mxGeometry x="30" width="220" height="60" as="geometry">
            <mxRectangle width="220" height="60" as="alternateBounds" />
          </mxGeometry>
        </mxCell>
        <mxCell id="xjSPEm2n4XkuTSJkwCVt-72" value="ITU" style="shape=table;startSize=30;container=1;collapsible=1;childLayout=tableLayout;fixedRows=1;rowLines=0;fontStyle=1;align=center;resizeLast=1;" vertex="1" parent="1">
          <mxGeometry x="70" y="1650" width="250" height="150" as="geometry" />
        </mxCell>
        <mxCell id="xjSPEm2n4XkuTSJkwCVt-73" value="" style="shape=partialRectangle;collapsible=0;dropTarget=0;pointerEvents=0;fillColor=none;points=[[0,0.5],[1,0.5]];portConstraint=eastwest;top=0;left=0;right=0;bottom=1;" vertex="1" parent="xjSPEm2n4XkuTSJkwCVt-72">
          <mxGeometry y="30" width="250" height="60" as="geometry" />
        </mxCell>
        <mxCell id="xjSPEm2n4XkuTSJkwCVt-74" value="PK" style="shape=partialRectangle;overflow=hidden;connectable=0;fillColor=none;top=0;left=0;bottom=0;right=0;fontStyle=1;" vertex="1" parent="xjSPEm2n4XkuTSJkwCVt-73">
          <mxGeometry width="30" height="60" as="geometry">
            <mxRectangle width="30" height="60" as="alternateBounds" />
          </mxGeometry>
        </mxCell>
        <mxCell id="xjSPEm2n4XkuTSJkwCVt-75" value="ADMID: varchar(64)&#xa;PATIENTID: varchar(64)&#xa;START_DATE: int&#xa;START_TIME: time&#xa;" style="shape=partialRectangle;overflow=hidden;connectable=0;fillColor=none;top=0;left=0;bottom=0;right=0;align=left;spacingLeft=6;fontStyle=5;" vertex="1" parent="xjSPEm2n4XkuTSJkwCVt-73">
          <mxGeometry x="30" width="220" height="60" as="geometry">
            <mxRectangle width="220" height="60" as="alternateBounds" />
          </mxGeometry>
        </mxCell>
        <mxCell id="xjSPEm2n4XkuTSJkwCVt-79" value="" style="shape=partialRectangle;collapsible=0;dropTarget=0;pointerEvents=0;fillColor=none;points=[[0,0.5],[1,0.5]];portConstraint=eastwest;top=0;left=0;right=0;bottom=0;" vertex="1" parent="xjSPEm2n4XkuTSJkwCVt-72">
          <mxGeometry y="90" width="250" height="60" as="geometry" />
        </mxCell>
        <mxCell id="xjSPEm2n4XkuTSJkwCVt-80" value="" style="shape=partialRectangle;overflow=hidden;connectable=0;fillColor=none;top=0;left=0;bottom=0;right=0;" vertex="1" parent="xjSPEm2n4XkuTSJkwCVt-79">
          <mxGeometry width="30" height="60" as="geometry">
            <mxRectangle width="30" height="60" as="alternateBounds" />
          </mxGeometry>
        </mxCell>
        <mxCell id="xjSPEm2n4XkuTSJkwCVt-81" value="AGE_GRP_AT_START: varchar(20)&#xa;END_DATE: int&#xa;END_TIME: time&#xa;AGE_GRP_AT_END: varchar(20)" style="shape=partialRectangle;overflow=hidden;connectable=0;fillColor=none;top=0;left=0;bottom=0;right=0;align=left;spacingLeft=6;" vertex="1" parent="xjSPEm2n4XkuTSJkwCVt-79">
          <mxGeometry x="30" width="220" height="60" as="geometry">
            <mxRectangle width="220" height="60" as="alternateBounds" />
          </mxGeometry>
        </mxCell>
        <mxCell id="xjSPEm2n4XkuTSJkwCVt-82" value="Operations" style="shape=table;startSize=30;container=1;collapsible=1;childLayout=tableLayout;fixedRows=1;rowLines=0;fontStyle=1;align=center;resizeLast=1;" vertex="1" parent="1">
          <mxGeometry x="70" y="1890" width="250" height="140" as="geometry" />
        </mxCell>
        <mxCell id="xjSPEm2n4XkuTSJkwCVt-83" value="" style="shape=partialRectangle;collapsible=0;dropTarget=0;pointerEvents=0;fillColor=none;points=[[0,0.5],[1,0.5]];portConstraint=eastwest;top=0;left=0;right=0;bottom=1;" vertex="1" parent="xjSPEm2n4XkuTSJkwCVt-82">
          <mxGeometry y="30" width="250" height="60" as="geometry" />
        </mxCell>
        <mxCell id="xjSPEm2n4XkuTSJkwCVt-84" value="PK" style="shape=partialRectangle;overflow=hidden;connectable=0;fillColor=none;top=0;left=0;bottom=0;right=0;fontStyle=1;" vertex="1" parent="xjSPEm2n4XkuTSJkwCVt-83">
          <mxGeometry width="30" height="60" as="geometry">
            <mxRectangle width="30" height="60" as="alternateBounds" />
          </mxGeometry>
        </mxCell>
        <mxCell id="xjSPEm2n4XkuTSJkwCVt-85" value="ADMID: varchar(64)&#xa;PATIENTID: varchar(64)&#xa;OP_DATE: int&#xa;OP_TIME: time&#xa;" style="shape=partialRectangle;overflow=hidden;connectable=0;fillColor=none;top=0;left=0;bottom=0;right=0;align=left;spacingLeft=6;fontStyle=5;" vertex="1" parent="xjSPEm2n4XkuTSJkwCVt-83">
          <mxGeometry x="30" width="220" height="60" as="geometry">
            <mxRectangle width="220" height="60" as="alternateBounds" />
          </mxGeometry>
        </mxCell>
        <mxCell id="xjSPEm2n4XkuTSJkwCVt-89" value="" style="shape=partialRectangle;collapsible=0;dropTarget=0;pointerEvents=0;fillColor=none;points=[[0,0.5],[1,0.5]];portConstraint=eastwest;top=0;left=0;right=0;bottom=0;" vertex="1" parent="xjSPEm2n4XkuTSJkwCVt-82">
          <mxGeometry y="90" width="250" height="50" as="geometry" />
        </mxCell>
        <mxCell id="xjSPEm2n4XkuTSJkwCVt-90" value="" style="shape=partialRectangle;overflow=hidden;connectable=0;fillColor=none;top=0;left=0;bottom=0;right=0;" vertex="1" parent="xjSPEm2n4XkuTSJkwCVt-89">
          <mxGeometry width="30" height="50" as="geometry">
            <mxRectangle width="30" height="50" as="alternateBounds" />
          </mxGeometry>
        </mxCell>
        <mxCell id="xjSPEm2n4XkuTSJkwCVt-91" value="OPCS_CODE: varchar(10)&#xa;OPCS_DESC: varchar(255)&#xa;AGE_GRP_AT_OP: varchar(20)" style="shape=partialRectangle;overflow=hidden;connectable=0;fillColor=none;top=0;left=0;bottom=0;right=0;align=left;spacingLeft=6;" vertex="1" parent="xjSPEm2n4XkuTSJkwCVt-89">
          <mxGeometry x="30" width="220" height="50" as="geometry">
            <mxRectangle width="220" height="50" as="alternateBounds" />
          </mxGeometry>
        </mxCell>
        <mxCell id="xjSPEm2n4XkuTSJkwCVt-92" value="Problems(Probs)" style="shape=table;startSize=30;container=1;collapsible=1;childLayout=tableLayout;fixedRows=1;rowLines=0;fontStyle=1;align=center;resizeLast=1;" vertex="1" parent="1">
          <mxGeometry x="70" y="490" width="250" height="160.00000000000045" as="geometry" />
        </mxCell>
        <mxCell id="xjSPEm2n4XkuTSJkwCVt-93" value="" style="shape=partialRectangle;collapsible=0;dropTarget=0;pointerEvents=0;fillColor=none;points=[[0,0.5],[1,0.5]];portConstraint=eastwest;top=0;left=0;right=0;bottom=1;" vertex="1" parent="xjSPEm2n4XkuTSJkwCVt-92">
          <mxGeometry y="30" width="250" height="50" as="geometry" />
        </mxCell>
        <mxCell id="xjSPEm2n4XkuTSJkwCVt-94" value="PK" style="shape=partialRectangle;overflow=hidden;connectable=0;fillColor=none;top=0;left=0;bottom=0;right=0;fontStyle=1;" vertex="1" parent="xjSPEm2n4XkuTSJkwCVt-93">
          <mxGeometry width="30" height="50" as="geometry">
            <mxRectangle width="30" height="50" as="alternateBounds" />
          </mxGeometry>
        </mxCell>
        <mxCell id="xjSPEm2n4XkuTSJkwCVt-95" value="ADMID: varchar(64)&#xa;PATIENTID: varchar(64)&#xa;NOTE_DATE: int&#xa;" style="shape=partialRectangle;overflow=hidden;connectable=0;fillColor=none;top=0;left=0;bottom=0;right=0;align=left;spacingLeft=6;fontStyle=5;" vertex="1" parent="xjSPEm2n4XkuTSJkwCVt-93">
          <mxGeometry x="30" width="220" height="50" as="geometry">
            <mxRectangle width="220" height="50" as="alternateBounds" />
          </mxGeometry>
        </mxCell>
        <mxCell id="xjSPEm2n4XkuTSJkwCVt-99" value="" style="shape=partialRectangle;collapsible=0;dropTarget=0;pointerEvents=0;fillColor=none;points=[[0,0.5],[1,0.5]];portConstraint=eastwest;top=0;left=0;right=0;bottom=0;" vertex="1" parent="xjSPEm2n4XkuTSJkwCVt-92">
          <mxGeometry y="80" width="250" height="80" as="geometry" />
        </mxCell>
        <mxCell id="xjSPEm2n4XkuTSJkwCVt-100" value="" style="shape=partialRectangle;overflow=hidden;connectable=0;fillColor=none;top=0;left=0;bottom=0;right=0;" vertex="1" parent="xjSPEm2n4XkuTSJkwCVt-99">
          <mxGeometry width="30" height="80" as="geometry">
            <mxRectangle width="30" height="80" as="alternateBounds" />
          </mxGeometry>
        </mxCell>
        <mxCell id="xjSPEm2n4XkuTSJkwCVt-101" value="AGE_GRP_AT_NOTED_DATE: varchar(20)&#xa;RESOLVED_DATE: int&#xa;AGE_GRP_AT_RESOLVED_DATE: varchar(20)&#xa;-PROBLEM: varchar(20)&#xa;PROB_NAME:varchar(255)" style="shape=partialRectangle;overflow=hidden;connectable=0;fillColor=none;top=0;left=0;bottom=0;right=0;align=left;spacingLeft=6;" vertex="1" parent="xjSPEm2n4XkuTSJkwCVt-99">
          <mxGeometry x="30" width="220" height="80" as="geometry">
            <mxRectangle width="220" height="80" as="alternateBounds" />
          </mxGeometry>
        </mxCell>
        <mxCell id="xjSPEm2n4XkuTSJkwCVt-102" value="RadiologyExams (Rad)" style="shape=table;startSize=30;container=1;collapsible=1;childLayout=tableLayout;fixedRows=1;rowLines=0;fontStyle=1;align=center;resizeLast=1;" vertex="1" parent="1">
          <mxGeometry x="660" y="1920" width="250" height="180" as="geometry" />
        </mxCell>
        <mxCell id="xjSPEm2n4XkuTSJkwCVt-103" value="" style="shape=partialRectangle;collapsible=0;dropTarget=0;pointerEvents=0;fillColor=none;points=[[0,0.5],[1,0.5]];portConstraint=eastwest;top=0;left=0;right=0;bottom=1;" vertex="1" parent="xjSPEm2n4XkuTSJkwCVt-102">
          <mxGeometry y="30" width="250" height="70" as="geometry" />
        </mxCell>
        <mxCell id="xjSPEm2n4XkuTSJkwCVt-104" value="PK" style="shape=partialRectangle;overflow=hidden;connectable=0;fillColor=none;top=0;left=0;bottom=0;right=0;fontStyle=1;" vertex="1" parent="xjSPEm2n4XkuTSJkwCVt-103">
          <mxGeometry width="30" height="70" as="geometry">
            <mxRectangle width="30" height="70" as="alternateBounds" />
          </mxGeometry>
        </mxCell>
        <mxCell id="xjSPEm2n4XkuTSJkwCVt-105" value="ADMID    varchar(64)     &#xa;PATIENTID    varchar(64)  &#xa;EXAM_DATE    int  &#xa;EXAM_TIME    time   " style="shape=partialRectangle;overflow=hidden;connectable=0;fillColor=none;top=0;left=0;bottom=0;right=0;align=left;spacingLeft=6;fontStyle=5;" vertex="1" parent="xjSPEm2n4XkuTSJkwCVt-103">
          <mxGeometry x="30" width="220" height="70" as="geometry">
            <mxRectangle width="220" height="70" as="alternateBounds" />
          </mxGeometry>
        </mxCell>
        <mxCell id="xjSPEm2n4XkuTSJkwCVt-106" value="" style="shape=partialRectangle;collapsible=0;dropTarget=0;pointerEvents=0;fillColor=none;points=[[0,0.5],[1,0.5]];portConstraint=eastwest;top=0;left=0;right=0;bottom=0;" vertex="1" parent="xjSPEm2n4XkuTSJkwCVt-102">
          <mxGeometry y="100" width="250" height="30" as="geometry" />
        </mxCell>
        <mxCell id="xjSPEm2n4XkuTSJkwCVt-107" value="" style="shape=partialRectangle;overflow=hidden;connectable=0;fillColor=none;top=0;left=0;bottom=0;right=0;" vertex="1" parent="xjSPEm2n4XkuTSJkwCVt-106">
          <mxGeometry width="30" height="30" as="geometry">
            <mxRectangle width="30" height="30" as="alternateBounds" />
          </mxGeometry>
        </mxCell>
        <mxCell id="xjSPEm2n4XkuTSJkwCVt-108" value="" style="shape=partialRectangle;overflow=hidden;connectable=0;fillColor=none;top=0;left=0;bottom=0;right=0;align=left;spacingLeft=6;" vertex="1" parent="xjSPEm2n4XkuTSJkwCVt-106">
          <mxGeometry x="30" width="220" height="30" as="geometry">
            <mxRectangle width="220" height="30" as="alternateBounds" />
          </mxGeometry>
        </mxCell>
        <mxCell id="xjSPEm2n4XkuTSJkwCVt-109" value="" style="shape=partialRectangle;collapsible=0;dropTarget=0;pointerEvents=0;fillColor=none;points=[[0,0.5],[1,0.5]];portConstraint=eastwest;top=0;left=0;right=0;bottom=0;" vertex="1" parent="xjSPEm2n4XkuTSJkwCVt-102">
          <mxGeometry y="130" width="250" height="50" as="geometry" />
        </mxCell>
        <mxCell id="xjSPEm2n4XkuTSJkwCVt-110" value="" style="shape=partialRectangle;overflow=hidden;connectable=0;fillColor=none;top=0;left=0;bottom=0;right=0;" vertex="1" parent="xjSPEm2n4XkuTSJkwCVt-109">
          <mxGeometry width="30" height="50" as="geometry">
            <mxRectangle width="30" height="50" as="alternateBounds" />
          </mxGeometry>
        </mxCell>
        <mxCell id="xjSPEm2n4XkuTSJkwCVt-111" value="AGE_GRP_AT_EXAM: varchar(20)            &#xa;NICIP_CODE: varchar(10)          &#xa;EXAM_NAME: varchar(255)  " style="shape=partialRectangle;overflow=hidden;connectable=0;fillColor=none;top=0;left=0;bottom=0;right=0;align=left;spacingLeft=6;" vertex="1" parent="xjSPEm2n4XkuTSJkwCVt-109">
          <mxGeometry x="30" width="220" height="50" as="geometry">
            <mxRectangle width="220" height="50" as="alternateBounds" />
          </mxGeometry>
        </mxCell>
        <mxCell id="xjSPEm2n4XkuTSJkwCVt-112" value="SurgicalHistory (SurgHX)" style="shape=table;startSize=30;container=1;collapsible=1;childLayout=tableLayout;fixedRows=1;rowLines=0;fontStyle=1;align=center;resizeLast=1;" vertex="1" parent="1">
          <mxGeometry x="70" y="2120" width="250" height="130" as="geometry" />
        </mxCell>
        <mxCell id="xjSPEm2n4XkuTSJkwCVt-113" value="" style="shape=partialRectangle;collapsible=0;dropTarget=0;pointerEvents=0;fillColor=none;points=[[0,0.5],[1,0.5]];portConstraint=eastwest;top=0;left=0;right=0;bottom=1;" vertex="1" parent="xjSPEm2n4XkuTSJkwCVt-112">
          <mxGeometry y="30" width="250" height="60" as="geometry" />
        </mxCell>
        <mxCell id="xjSPEm2n4XkuTSJkwCVt-114" value="PK" style="shape=partialRectangle;overflow=hidden;connectable=0;fillColor=none;top=0;left=0;bottom=0;right=0;fontStyle=1;" vertex="1" parent="xjSPEm2n4XkuTSJkwCVt-113">
          <mxGeometry width="30" height="60" as="geometry">
            <mxRectangle width="30" height="60" as="alternateBounds" />
          </mxGeometry>
        </mxCell>
        <mxCell id="xjSPEm2n4XkuTSJkwCVt-115" value="ADMID: varchar(64)&#xa;PATIENTID: varchar(64)&#xa;HX_DATE: int&#xa;PROC_CODE: varchar(20)&#xa;" style="shape=partialRectangle;overflow=hidden;connectable=0;fillColor=none;top=0;left=0;bottom=0;right=0;align=left;spacingLeft=6;fontStyle=5;" vertex="1" parent="xjSPEm2n4XkuTSJkwCVt-113">
          <mxGeometry x="30" width="220" height="60" as="geometry">
            <mxRectangle width="220" height="60" as="alternateBounds" />
          </mxGeometry>
        </mxCell>
        <mxCell id="xjSPEm2n4XkuTSJkwCVt-119" value="" style="shape=partialRectangle;collapsible=0;dropTarget=0;pointerEvents=0;fillColor=none;points=[[0,0.5],[1,0.5]];portConstraint=eastwest;top=0;left=0;right=0;bottom=0;" vertex="1" parent="xjSPEm2n4XkuTSJkwCVt-112">
          <mxGeometry y="90" width="250" height="40" as="geometry" />
        </mxCell>
        <mxCell id="xjSPEm2n4XkuTSJkwCVt-120" value="" style="shape=partialRectangle;overflow=hidden;connectable=0;fillColor=none;top=0;left=0;bottom=0;right=0;" vertex="1" parent="xjSPEm2n4XkuTSJkwCVt-119">
          <mxGeometry width="30" height="40" as="geometry">
            <mxRectangle width="30" height="40" as="alternateBounds" />
          </mxGeometry>
        </mxCell>
        <mxCell id="xjSPEm2n4XkuTSJkwCVt-121" value="AGE_GRP_AT_HX_DATE: varchar(20)&#xa;SURG_HX_NAME: varchar(255)" style="shape=partialRectangle;overflow=hidden;connectable=0;fillColor=none;top=0;left=0;bottom=0;right=0;align=left;spacingLeft=6;" vertex="1" parent="xjSPEm2n4XkuTSJkwCVt-119">
          <mxGeometry x="30" width="220" height="40" as="geometry">
            <mxRectangle width="220" height="40" as="alternateBounds" />
          </mxGeometry>
        </mxCell>
        <mxCell id="xjSPEm2n4XkuTSJkwCVt-122" value="TheatreRecords (Thtr)" style="shape=table;startSize=30;container=1;collapsible=1;childLayout=tableLayout;fixedRows=1;rowLines=0;fontStyle=1;align=center;resizeLast=1;" vertex="1" parent="1">
          <mxGeometry x="70" y="2330" width="250" height="220" as="geometry" />
        </mxCell>
        <mxCell id="xjSPEm2n4XkuTSJkwCVt-123" value="" style="shape=partialRectangle;collapsible=0;dropTarget=0;pointerEvents=0;fillColor=none;points=[[0,0.5],[1,0.5]];portConstraint=eastwest;top=0;left=0;right=0;bottom=1;" vertex="1" parent="xjSPEm2n4XkuTSJkwCVt-122">
          <mxGeometry y="30" width="250" height="30" as="geometry" />
        </mxCell>
        <mxCell id="xjSPEm2n4XkuTSJkwCVt-124" value="PK" style="shape=partialRectangle;overflow=hidden;connectable=0;fillColor=none;top=0;left=0;bottom=0;right=0;fontStyle=1;" vertex="1" parent="xjSPEm2n4XkuTSJkwCVt-123">
          <mxGeometry width="30" height="30" as="geometry">
            <mxRectangle width="30" height="30" as="alternateBounds" />
          </mxGeometry>
        </mxCell>
        <mxCell id="xjSPEm2n4XkuTSJkwCVt-125" value="ADMID: varchar(64)" style="shape=partialRectangle;overflow=hidden;connectable=0;fillColor=none;top=0;left=0;bottom=0;right=0;align=left;spacingLeft=6;fontStyle=5;" vertex="1" parent="xjSPEm2n4XkuTSJkwCVt-123">
          <mxGeometry x="30" width="220" height="30" as="geometry">
            <mxRectangle width="220" height="30" as="alternateBounds" />
          </mxGeometry>
        </mxCell>
        <mxCell id="xjSPEm2n4XkuTSJkwCVt-126" value="" style="shape=partialRectangle;collapsible=0;dropTarget=0;pointerEvents=0;fillColor=none;points=[[0,0.5],[1,0.5]];portConstraint=eastwest;top=0;left=0;right=0;bottom=0;" vertex="1" parent="xjSPEm2n4XkuTSJkwCVt-122">
          <mxGeometry y="60" width="250" height="30" as="geometry" />
        </mxCell>
        <mxCell id="xjSPEm2n4XkuTSJkwCVt-127" value="" style="shape=partialRectangle;overflow=hidden;connectable=0;fillColor=none;top=0;left=0;bottom=0;right=0;" vertex="1" parent="xjSPEm2n4XkuTSJkwCVt-126">
          <mxGeometry width="30" height="30" as="geometry">
            <mxRectangle width="30" height="30" as="alternateBounds" />
          </mxGeometry>
        </mxCell>
        <mxCell id="xjSPEm2n4XkuTSJkwCVt-128" value="PATIENTID: varchar(64) " style="shape=partialRectangle;overflow=hidden;connectable=0;fillColor=none;top=0;left=0;bottom=0;right=0;align=left;spacingLeft=6;" vertex="1" parent="xjSPEm2n4XkuTSJkwCVt-126">
          <mxGeometry x="30" width="220" height="30" as="geometry">
            <mxRectangle width="220" height="30" as="alternateBounds" />
          </mxGeometry>
        </mxCell>
        <mxCell id="xjSPEm2n4XkuTSJkwCVt-129" value="" style="shape=partialRectangle;collapsible=0;dropTarget=0;pointerEvents=0;fillColor=none;points=[[0,0.5],[1,0.5]];portConstraint=eastwest;top=0;left=0;right=0;bottom=0;" vertex="1" parent="xjSPEm2n4XkuTSJkwCVt-122">
          <mxGeometry y="90" width="250" height="120" as="geometry" />
        </mxCell>
        <mxCell id="xjSPEm2n4XkuTSJkwCVt-130" value="" style="shape=partialRectangle;overflow=hidden;connectable=0;fillColor=none;top=0;left=0;bottom=0;right=0;" vertex="1" parent="xjSPEm2n4XkuTSJkwCVt-129">
          <mxGeometry width="30" height="120" as="geometry">
            <mxRectangle width="30" height="120" as="alternateBounds" />
          </mxGeometry>
        </mxCell>
        <mxCell id="xjSPEm2n4XkuTSJkwCVt-131" value="OPCS_CODE: varchar(10)&#xa;OPCS_DESC: (varchar(255)&#xa;OP_STRT_DATE: int&#xa;OP_STRT_TIME: time&#xa;AGE_GRP_AT_OP_STRT: varchar(20)&#xa;OP_END_DATE: int&#xa;OP_END_TIME: time&#xa;AGE_GRP_AT_OP_END: varchar(20)" style="shape=partialRectangle;overflow=hidden;connectable=0;fillColor=none;top=0;left=0;bottom=0;right=0;align=left;spacingLeft=6;" vertex="1" parent="xjSPEm2n4XkuTSJkwCVt-129">
          <mxGeometry x="30" width="220" height="120" as="geometry">
            <mxRectangle width="220" height="120" as="alternateBounds" />
          </mxGeometry>
        </mxCell>
        <mxCell id="xjSPEm2n4XkuTSJkwCVt-132" value="Cancer" style="shape=table;startSize=30;container=1;collapsible=1;childLayout=tableLayout;fixedRows=1;rowLines=0;fontStyle=1;align=center;resizeLast=1;" vertex="1" parent="1">
          <mxGeometry x="660" y="1800" width="250" height="80" as="geometry" />
        </mxCell>
        <mxCell id="xjSPEm2n4XkuTSJkwCVt-133" value="" style="shape=partialRectangle;collapsible=0;dropTarget=0;pointerEvents=0;fillColor=none;points=[[0,0.5],[1,0.5]];portConstraint=eastwest;top=0;left=0;right=0;bottom=1;" vertex="1" parent="xjSPEm2n4XkuTSJkwCVt-132">
          <mxGeometry y="30" width="250" height="30" as="geometry" />
        </mxCell>
        <mxCell id="xjSPEm2n4XkuTSJkwCVt-134" value="PK" style="shape=partialRectangle;overflow=hidden;connectable=0;fillColor=none;top=0;left=0;bottom=0;right=0;fontStyle=1;" vertex="1" parent="xjSPEm2n4XkuTSJkwCVt-133">
          <mxGeometry width="30" height="30" as="geometry">
            <mxRectangle width="30" height="30" as="alternateBounds" />
          </mxGeometry>
        </mxCell>
        <mxCell id="xjSPEm2n4XkuTSJkwCVt-135" value="PATIENTID: varchar(64)" style="shape=partialRectangle;overflow=hidden;connectable=0;fillColor=none;top=0;left=0;bottom=0;right=0;align=left;spacingLeft=6;fontStyle=5;" vertex="1" parent="xjSPEm2n4XkuTSJkwCVt-133">
          <mxGeometry x="30" width="220" height="30" as="geometry">
            <mxRectangle width="220" height="30" as="alternateBounds" />
          </mxGeometry>
        </mxCell>
        <mxCell id="xjSPEm2n4XkuTSJkwCVt-136" value="" style="shape=partialRectangle;collapsible=0;dropTarget=0;pointerEvents=0;fillColor=none;points=[[0,0.5],[1,0.5]];portConstraint=eastwest;top=0;left=0;right=0;bottom=0;" vertex="1" parent="xjSPEm2n4XkuTSJkwCVt-132">
          <mxGeometry y="60" width="250" height="20" as="geometry" />
        </mxCell>
        <mxCell id="xjSPEm2n4XkuTSJkwCVt-137" value="" style="shape=partialRectangle;overflow=hidden;connectable=0;fillColor=none;top=0;left=0;bottom=0;right=0;" vertex="1" parent="xjSPEm2n4XkuTSJkwCVt-136">
          <mxGeometry width="30" height="20" as="geometry">
            <mxRectangle width="30" height="20" as="alternateBounds" />
          </mxGeometry>
        </mxCell>
        <mxCell id="xjSPEm2n4XkuTSJkwCVt-138" value="Cancer: char(1)" style="shape=partialRectangle;overflow=hidden;connectable=0;fillColor=none;top=0;left=0;bottom=0;right=0;align=left;spacingLeft=6;" vertex="1" parent="xjSPEm2n4XkuTSJkwCVt-136">
          <mxGeometry x="30" width="220" height="20" as="geometry">
            <mxRectangle width="220" height="20" as="alternateBounds" />
          </mxGeometry>
        </mxCell>
        <mxCell id="xjSPEm2n4XkuTSJkwCVt-148" value="Admission（Adm)" style="shape=table;startSize=30;container=1;collapsible=1;childLayout=tableLayout;fixedRows=1;rowLines=0;fontStyle=1;align=center;resizeLast=1;" vertex="1" parent="1">
          <mxGeometry x="-360" y="1040" width="250" height="400.00000000000045" as="geometry" />
        </mxCell>
        <mxCell id="xjSPEm2n4XkuTSJkwCVt-149" value="" style="shape=partialRectangle;collapsible=0;dropTarget=0;pointerEvents=0;fillColor=none;points=[[0,0.5],[1,0.5]];portConstraint=eastwest;top=0;left=0;right=0;bottom=1;" vertex="1" parent="xjSPEm2n4XkuTSJkwCVt-148">
          <mxGeometry y="30" width="250" height="50" as="geometry" />
        </mxCell>
        <mxCell id="xjSPEm2n4XkuTSJkwCVt-150" value="PK" style="shape=partialRectangle;overflow=hidden;connectable=0;fillColor=none;top=0;left=0;bottom=0;right=0;fontStyle=1;" vertex="1" parent="xjSPEm2n4XkuTSJkwCVt-149">
          <mxGeometry width="30" height="50" as="geometry">
            <mxRectangle width="30" height="50" as="alternateBounds" />
          </mxGeometry>
        </mxCell>
        <mxCell id="xjSPEm2n4XkuTSJkwCVt-151" value="ADMID: varchar(64)&#xa;PATIENTID: varchar(64) &#xa;ADM_DATE: int&#xa;" style="shape=partialRectangle;overflow=hidden;connectable=0;fillColor=none;top=0;left=0;bottom=0;right=0;align=left;spacingLeft=6;fontStyle=5;" vertex="1" parent="xjSPEm2n4XkuTSJkwCVt-149">
          <mxGeometry x="30" width="220" height="50" as="geometry">
            <mxRectangle width="220" height="50" as="alternateBounds" />
          </mxGeometry>
        </mxCell>
        <mxCell id="xjSPEm2n4XkuTSJkwCVt-155" value="" style="shape=partialRectangle;collapsible=0;dropTarget=0;pointerEvents=0;fillColor=none;points=[[0,0.5],[1,0.5]];portConstraint=eastwest;top=0;left=0;right=0;bottom=0;" vertex="1" parent="xjSPEm2n4XkuTSJkwCVt-148">
          <mxGeometry y="80" width="250" height="160" as="geometry" />
        </mxCell>
        <mxCell id="xjSPEm2n4XkuTSJkwCVt-156" value="" style="shape=partialRectangle;overflow=hidden;connectable=0;fillColor=none;top=0;left=0;bottom=0;right=0;" vertex="1" parent="xjSPEm2n4XkuTSJkwCVt-155">
          <mxGeometry width="30" height="160" as="geometry">
            <mxRectangle width="30" height="160" as="alternateBounds" />
          </mxGeometry>
        </mxCell>
        <mxCell id="xjSPEm2n4XkuTSJkwCVt-157" value="ADM_TIME: time&#xa;AGE_GAR_AT_ADM: varchar(20)&#xa;DIS_DATE: int&#xa;DIS_TIME: time&#xa;AGE_GAR_AT_DIS: varchar(20)&#xa;DISCH_DEST: int&#xa;TFC_CODE: int&#xa;TFC_DESC: varchar(255)&#xa;ADM_SOURCE: int&#xa;NAT_ADM_METH" style="shape=partialRectangle;overflow=hidden;connectable=0;fillColor=none;top=0;left=0;bottom=0;right=0;align=left;spacingLeft=6;" vertex="1" parent="xjSPEm2n4XkuTSJkwCVt-155">
          <mxGeometry x="30" width="220" height="160" as="geometry">
            <mxRectangle width="220" height="160" as="alternateBounds" />
          </mxGeometry>
        </mxCell>
        <mxCell id="xjSPEm2n4XkuTSJkwCVt-172" value="" style="shape=partialRectangle;collapsible=0;dropTarget=0;pointerEvents=0;fillColor=none;points=[[0,0.5],[1,0.5]];portConstraint=eastwest;top=0;left=0;right=0;bottom=0;" vertex="1" parent="xjSPEm2n4XkuTSJkwCVt-148">
          <mxGeometry y="240" width="250" height="160" as="geometry" />
        </mxCell>
        <mxCell id="xjSPEm2n4XkuTSJkwCVt-173" value="" style="shape=partialRectangle;overflow=hidden;connectable=0;fillColor=none;top=0;left=0;bottom=0;right=0;" vertex="1" parent="xjSPEm2n4XkuTSJkwCVt-172">
          <mxGeometry width="30" height="160" as="geometry">
            <mxRectangle width="30" height="160" as="alternateBounds" />
          </mxGeometry>
        </mxCell>
        <mxCell id="xjSPEm2n4XkuTSJkwCVt-174" value="ADM_TIME: time&#xa;AGE_GAR_AT_ADM: varchar(20)&#xa;DIS_DATE: int&#xa;DIS_TIME: time&#xa;AGE_GAR_AT_DIS: varchar(20)&#xa;DISCH_DEST: int&#xa;TFC_CODE: int&#xa;TFC_DESC: varchar(255)&#xa;ADM_SOURCE: int&#xa;NAT_ADM_METH" style="shape=partialRectangle;overflow=hidden;connectable=0;fillColor=none;top=0;left=0;bottom=0;right=0;align=left;spacingLeft=6;" vertex="1" parent="xjSPEm2n4XkuTSJkwCVt-172">
          <mxGeometry x="30" width="220" height="160" as="geometry">
            <mxRectangle width="220" height="160" as="alternateBounds" />
          </mxGeometry>
        </mxCell>
        <mxCell id="xjSPEm2n4XkuTSJkwCVt-22" value="MedicalHistory" style="shape=table;startSize=30;container=1;collapsible=1;childLayout=tableLayout;fixedRows=1;rowLines=0;fontStyle=1;align=center;resizeLast=1;" vertex="1" parent="1">
          <mxGeometry x="70" y="750" width="250" height="148.00000000000045" as="geometry" />
        </mxCell>
        <mxCell id="xjSPEm2n4XkuTSJkwCVt-23" value="" style="shape=partialRectangle;collapsible=0;dropTarget=0;pointerEvents=0;fillColor=none;points=[[0,0.5],[1,0.5]];portConstraint=eastwest;top=0;left=0;right=0;bottom=1;" vertex="1" parent="xjSPEm2n4XkuTSJkwCVt-22">
          <mxGeometry y="30" width="250" height="78" as="geometry" />
        </mxCell>
        <mxCell id="xjSPEm2n4XkuTSJkwCVt-24" value="PK" style="shape=partialRectangle;overflow=hidden;connectable=0;fillColor=none;top=0;left=0;bottom=0;right=0;fontStyle=1;" vertex="1" parent="xjSPEm2n4XkuTSJkwCVt-23">
          <mxGeometry width="30" height="78" as="geometry">
            <mxRectangle width="30" height="78" as="alternateBounds" />
          </mxGeometry>
        </mxCell>
        <mxCell id="xjSPEm2n4XkuTSJkwCVt-25" value="ADMID:varchar(64)&#xa;HX_DATE: int&#xa;PAATIENTID: varchar(64)&#xa;PROBLEM: varchar(50)&#xa;&#xa;" style="shape=partialRectangle;overflow=hidden;connectable=0;fillColor=none;top=0;left=0;bottom=0;right=0;align=left;spacingLeft=6;fontStyle=5;" vertex="1" parent="xjSPEm2n4XkuTSJkwCVt-23">
          <mxGeometry x="30" width="220" height="78" as="geometry">
            <mxRectangle width="220" height="78" as="alternateBounds" />
          </mxGeometry>
        </mxCell>
        <mxCell id="xjSPEm2n4XkuTSJkwCVt-29" value="" style="shape=partialRectangle;collapsible=0;dropTarget=0;pointerEvents=0;fillColor=none;points=[[0,0.5],[1,0.5]];portConstraint=eastwest;top=0;left=0;right=0;bottom=0;" vertex="1" parent="xjSPEm2n4XkuTSJkwCVt-22">
          <mxGeometry y="108" width="250" height="40" as="geometry" />
        </mxCell>
        <mxCell id="xjSPEm2n4XkuTSJkwCVt-30" value="" style="shape=partialRectangle;overflow=hidden;connectable=0;fillColor=none;top=0;left=0;bottom=0;right=0;" vertex="1" parent="xjSPEm2n4XkuTSJkwCVt-29">
          <mxGeometry width="30" height="40" as="geometry">
            <mxRectangle width="30" height="40" as="alternateBounds" />
          </mxGeometry>
        </mxCell>
        <mxCell id="xjSPEm2n4XkuTSJkwCVt-31" value="AGE_GRP_AT_HX_DATE: varchar(20)&#xa;MED_HX_NAME: varchar(255)" style="shape=partialRectangle;overflow=hidden;connectable=0;fillColor=none;top=0;left=0;bottom=0;right=0;align=left;spacingLeft=6;" vertex="1" parent="xjSPEm2n4XkuTSJkwCVt-29">
          <mxGeometry x="30" width="220" height="40" as="geometry">
            <mxRectangle width="220" height="40" as="alternateBounds" />
          </mxGeometry>
        </mxCell>
        <mxCell id="xjSPEm2n4XkuTSJkwCVt-167" value="" style="edgeStyle=entityRelationEdgeStyle;endArrow=ERzeroToMany;startArrow=ERone;endFill=1;startFill=0;entryX=-0.007;entryY=0.933;entryDx=0;entryDy=0;entryPerimeter=0;exitX=1.014;exitY=0.052;exitDx=0;exitDy=0;exitPerimeter=0;" edge="1" parent="1" source="xjSPEm2n4XkuTSJkwCVt-148" target="xjSPEm2n4XkuTSJkwCVt-23">
          <mxGeometry width="100" height="100" relative="1" as="geometry">
            <mxPoint x="-110" y="1050" as="sourcePoint" />
            <mxPoint x="30" y="810" as="targetPoint" />
            <Array as="points">
              <mxPoint x="-90" y="1175" />
            </Array>
          </mxGeometry>
        </mxCell>
        <mxCell id="xjSPEm2n4XkuTSJkwCVt-168" value="" style="edgeStyle=entityRelationEdgeStyle;endArrow=ERzeroToMany;startArrow=ERone;endFill=1;startFill=0;entryX=-0.009;entryY=0.096;entryDx=0;entryDy=0;entryPerimeter=0;exitX=1.016;exitY=0.059;exitDx=0;exitDy=0;exitPerimeter=0;" edge="1" parent="1" source="xjSPEm2n4XkuTSJkwCVt-148" target="xjSPEm2n4XkuTSJkwCVt-72">
          <mxGeometry width="100" height="100" relative="1" as="geometry">
            <mxPoint x="-104" y="1159.5" as="sourcePoint" />
            <mxPoint y="1190.5" as="targetPoint" />
            <Array as="points">
              <mxPoint x="-88" y="1280.5" />
            </Array>
          </mxGeometry>
        </mxCell>
        <mxCell id="xjSPEm2n4XkuTSJkwCVt-169" value="" style="edgeStyle=entityRelationEdgeStyle;endArrow=ERzeroToMany;startArrow=ERone;endFill=1;startFill=0;entryX=0.001;entryY=0.116;entryDx=0;entryDy=0;entryPerimeter=0;" edge="1" parent="1" target="xjSPEm2n4XkuTSJkwCVt-82">
          <mxGeometry width="100" height="100" relative="1" as="geometry">
            <mxPoint x="-104" y="1060" as="sourcePoint" />
            <mxPoint y="1231" as="targetPoint" />
            <Array as="points">
              <mxPoint x="-88" y="1321" />
            </Array>
          </mxGeometry>
        </mxCell>
        <mxCell id="xjSPEm2n4XkuTSJkwCVt-170" value="" style="edgeStyle=entityRelationEdgeStyle;endArrow=ERzeroToMany;startArrow=ERone;endFill=1;startFill=0;entryX=-0.019;entryY=0.092;entryDx=0;entryDy=0;entryPerimeter=0;" edge="1" parent="1" target="xjSPEm2n4XkuTSJkwCVt-112">
          <mxGeometry width="100" height="100" relative="1" as="geometry">
            <mxPoint x="-104" y="1060" as="sourcePoint" />
            <mxPoint y="1260" as="targetPoint" />
            <Array as="points">
              <mxPoint x="-88" y="1350" />
            </Array>
          </mxGeometry>
        </mxCell>
        <mxCell id="xjSPEm2n4XkuTSJkwCVt-171" value="" style="edgeStyle=entityRelationEdgeStyle;endArrow=ERzeroToMany;startArrow=ERone;endFill=1;startFill=0;entryX=-0.019;entryY=0.064;entryDx=0;entryDy=0;entryPerimeter=0;" edge="1" parent="1" target="xjSPEm2n4XkuTSJkwCVt-122">
          <mxGeometry width="100" height="100" relative="1" as="geometry">
            <mxPoint x="-100" y="1060" as="sourcePoint" />
            <mxPoint y="1291" as="targetPoint" />
            <Array as="points">
              <mxPoint x="-88" y="1381" />
            </Array>
          </mxGeometry>
        </mxCell>
        <mxCell id="xjSPEm2n4XkuTSJkwCVt-175" value="" style="edgeStyle=orthogonalEdgeStyle;endArrow=ERzeroToMany;startArrow=ERone;endFill=1;startFill=0;entryX=-0.008;entryY=0.041;entryDx=0;entryDy=0;entryPerimeter=0;elbow=vertical;" edge="1" parent="1" target="xjSPEm2n4XkuTSJkwCVt-12">
          <mxGeometry width="100" height="100" relative="1" as="geometry">
            <mxPoint x="-100" y="1060" as="sourcePoint" />
            <mxPoint x="454" y="870" as="targetPoint" />
            <Array as="points">
              <mxPoint x="570" y="1061" />
              <mxPoint x="570" y="622" />
            </Array>
          </mxGeometry>
        </mxCell>
        <mxCell id="xjSPEm2n4XkuTSJkwCVt-176" value="" style="edgeStyle=orthogonalEdgeStyle;endArrow=ERzeroToMany;startArrow=ERone;endFill=1;startFill=0;" edge="1" parent="1">
          <mxGeometry width="100" height="100" relative="1" as="geometry">
            <mxPoint x="-100" y="1060" as="sourcePoint" />
            <mxPoint x="650" y="990" as="targetPoint" />
            <Array as="points">
              <mxPoint x="620" y="1061" />
              <mxPoint x="620" y="990" />
            </Array>
          </mxGeometry>
        </mxCell>
        <mxCell id="xjSPEm2n4XkuTSJkwCVt-186" value="" style="edgeStyle=entityRelationEdgeStyle;endArrow=ERzeroToMany;startArrow=ERone;endFill=1;startFill=0;entryX=-0.012;entryY=0.095;entryDx=0;entryDy=0;entryPerimeter=0;" edge="1" parent="1" target="C-vyLk0tnHw3VtMMgP7b-13">
          <mxGeometry width="100" height="100" relative="1" as="geometry">
            <mxPoint x="-100" y="1060" as="sourcePoint" />
            <mxPoint x="620" y="1230" as="targetPoint" />
            <Array as="points">
              <mxPoint x="-80" y="1185" />
            </Array>
          </mxGeometry>
        </mxCell>
        <mxCell id="xjSPEm2n4XkuTSJkwCVt-187" value="" style="edgeStyle=entityRelationEdgeStyle;endArrow=ERzeroToMany;startArrow=ERone;endFill=1;startFill=0;entryX=-0.001;entryY=0.067;entryDx=0;entryDy=0;entryPerimeter=0;" edge="1" parent="1" target="xjSPEm2n4XkuTSJkwCVt-52">
          <mxGeometry width="100" height="100" relative="1" as="geometry">
            <mxPoint x="-110" y="1060" as="sourcePoint" />
            <mxPoint x="650" y="1450" as="targetPoint" />
            <Array as="points">
              <mxPoint x="-70" y="1195" />
            </Array>
          </mxGeometry>
        </mxCell>
        <mxCell id="xjSPEm2n4XkuTSJkwCVt-188" value="" style="edgeStyle=entityRelationEdgeStyle;endArrow=ERzeroToMany;startArrow=ERone;endFill=1;startFill=0;entryX=0;entryY=0.25;entryDx=0;entryDy=0;" edge="1" parent="1" target="xjSPEm2n4XkuTSJkwCVt-132">
          <mxGeometry width="100" height="100" relative="1" as="geometry">
            <mxPoint x="-110" y="1060" as="sourcePoint" />
            <mxPoint x="650" y="1810" as="targetPoint" />
            <Array as="points">
              <mxPoint x="-70" y="1195" />
            </Array>
          </mxGeometry>
        </mxCell>
        <mxCell id="xjSPEm2n4XkuTSJkwCVt-189" value="" style="edgeStyle=entityRelationEdgeStyle;endArrow=ERzeroToMany;startArrow=ERone;endFill=1;startFill=0;exitX=1.005;exitY=0.052;exitDx=0;exitDy=0;exitPerimeter=0;entryX=-0.007;entryY=0.078;entryDx=0;entryDy=0;entryPerimeter=0;" edge="1" parent="1" source="xjSPEm2n4XkuTSJkwCVt-148" target="xjSPEm2n4XkuTSJkwCVt-102">
          <mxGeometry width="100" height="100" relative="1" as="geometry">
            <mxPoint x="-76" y="1092" as="sourcePoint" />
            <mxPoint x="660" y="1820" as="targetPoint" />
            <Array as="points">
              <mxPoint x="-60" y="1205" />
            </Array>
          </mxGeometry>
        </mxCell>
        <mxCell id="xjSPEm2n4XkuTSJkwCVt-190" value="" style="edgeStyle=entityRelationEdgeStyle;endArrow=ERzeroToMany;startArrow=ERone;endFill=1;startFill=0;exitX=1.007;exitY=0.046;exitDx=0;exitDy=0;exitPerimeter=0;entryX=0.002;entryY=0.08;entryDx=0;entryDy=0;entryPerimeter=0;" edge="1" parent="1" source="xjSPEm2n4XkuTSJkwCVt-148" target="xjSPEm2n4XkuTSJkwCVt-32">
          <mxGeometry width="100" height="100" relative="1" as="geometry">
            <mxPoint x="-150" y="898" as="sourcePoint" />
            <mxPoint x="60" y="60" as="targetPoint" />
          </mxGeometry>
        </mxCell>
        <mxCell id="xjSPEm2n4XkuTSJkwCVt-191" value="" style="edgeStyle=entityRelationEdgeStyle;endArrow=ERzeroToMany;startArrow=ERone;endFill=1;startFill=0;entryX=-0.021;entryY=0.175;entryDx=0;entryDy=0;entryPerimeter=0;" edge="1" parent="1" target="xjSPEm2n4XkuTSJkwCVt-42">
          <mxGeometry width="100" height="100" relative="1" as="geometry">
            <mxPoint x="-100" y="1060" as="sourcePoint" />
            <mxPoint x="90" y="605" as="targetPoint" />
          </mxGeometry>
        </mxCell>
        <mxCell id="xjSPEm2n4XkuTSJkwCVt-192" value="" style="edgeStyle=entityRelationEdgeStyle;endArrow=ERzeroToMany;startArrow=ERone;endFill=1;startFill=0;exitX=1.018;exitY=0.361;exitDx=0;exitDy=0;exitPerimeter=0;" edge="1" parent="1" source="C-vyLk0tnHw3VtMMgP7b-27">
          <mxGeometry width="100" height="100" relative="1" as="geometry">
            <mxPoint x="-529" y="1200" as="sourcePoint" />
            <mxPoint x="60" y="110" as="targetPoint" />
          </mxGeometry>
        </mxCell>
        <mxCell id="xjSPEm2n4XkuTSJkwCVt-193" value="" style="edgeStyle=entityRelationEdgeStyle;endArrow=ERzeroToMany;startArrow=ERone;endFill=1;startFill=0;entryX=0;entryY=0.5;entryDx=0;entryDy=0;exitX=1.018;exitY=0.636;exitDx=0;exitDy=0;exitPerimeter=0;" edge="1" parent="1" source="C-vyLk0tnHw3VtMMgP7b-27" target="xjSPEm2n4XkuTSJkwCVt-46">
          <mxGeometry width="100" height="100" relative="1" as="geometry">
            <mxPoint x="-520" y="1200" as="sourcePoint" />
            <mxPoint x="-340" y="1076" as="targetPoint" />
          </mxGeometry>
        </mxCell>
        <mxCell id="xjSPEm2n4XkuTSJkwCVt-194" value="" style="edgeStyle=entityRelationEdgeStyle;endArrow=ERzeroToMany;startArrow=ERone;endFill=1;startFill=0;" edge="1" parent="1" target="xjSPEm2n4XkuTSJkwCVt-99">
          <mxGeometry width="100" height="100" relative="1" as="geometry">
            <mxPoint x="-540" y="1020" as="sourcePoint" />
            <mxPoint x="-330" y="1086" as="targetPoint" />
          </mxGeometry>
        </mxCell>
        <mxCell id="xjSPEm2n4XkuTSJkwCVt-195" value="" style="edgeStyle=entityRelationEdgeStyle;endArrow=ERzeroToMany;startArrow=ERone;endFill=1;startFill=0;entryX=0;entryY=0.038;entryDx=0;entryDy=0;entryPerimeter=0;" edge="1" parent="1" source="C-vyLk0tnHw3VtMMgP7b-27">
          <mxGeometry width="100" height="100" relative="1" as="geometry">
            <mxPoint x="-489" y="1236" as="sourcePoint" />
            <mxPoint x="-320" y="1096" as="targetPoint" />
          </mxGeometry>
        </mxCell>
        <mxCell id="xjSPEm2n4XkuTSJkwCVt-196" value="" style="edgeStyle=entityRelationEdgeStyle;endArrow=ERzeroToMany;startArrow=ERone;endFill=1;startFill=0;entryX=-0.021;entryY=-0.05;entryDx=0;entryDy=0;entryPerimeter=0;" edge="1" parent="1" target="xjSPEm2n4XkuTSJkwCVt-29">
          <mxGeometry width="100" height="100" relative="1" as="geometry">
            <mxPoint x="-530" y="1030" as="sourcePoint" />
            <mxPoint x="80" y="650" as="targetPoint" />
          </mxGeometry>
        </mxCell>
        <mxCell id="xjSPEm2n4XkuTSJkwCVt-197" value="" style="edgeStyle=entityRelationEdgeStyle;endArrow=ERzeroToMany;startArrow=ERone;endFill=1;startFill=0;entryX=0;entryY=0.5;entryDx=0;entryDy=0;" edge="1" parent="1" target="xjSPEm2n4XkuTSJkwCVt-19">
          <mxGeometry width="100" height="100" relative="1" as="geometry">
            <mxPoint x="-520" y="1040" as="sourcePoint" />
            <mxPoint x="90" y="660" as="targetPoint" />
          </mxGeometry>
        </mxCell>
        <mxCell id="xjSPEm2n4XkuTSJkwCVt-198" value="" style="edgeStyle=entityRelationEdgeStyle;endArrow=ERzeroToMany;startArrow=ERone;endFill=1;startFill=0;entryX=-0.004;entryY=0.331;entryDx=0;entryDy=0;entryPerimeter=0;" edge="1" parent="1" target="xjSPEm2n4XkuTSJkwCVt-9">
          <mxGeometry width="100" height="100" relative="1" as="geometry">
            <mxPoint x="-530" y="1030" as="sourcePoint" />
            <mxPoint x="75" y="888" as="targetPoint" />
          </mxGeometry>
        </mxCell>
        <mxCell id="xjSPEm2n4XkuTSJkwCVt-199" value="" style="edgeStyle=entityRelationEdgeStyle;endArrow=ERzeroToMany;startArrow=ERone;endFill=1;startFill=0;" edge="1" parent="1">
          <mxGeometry width="100" height="100" relative="1" as="geometry">
            <mxPoint x="-540" y="1020" as="sourcePoint" />
            <mxPoint x="650" y="1340" as="targetPoint" />
            <Array as="points">
              <mxPoint x="650" y="1340" />
            </Array>
          </mxGeometry>
        </mxCell>
        <mxCell id="xjSPEm2n4XkuTSJkwCVt-200" value="" style="edgeStyle=entityRelationEdgeStyle;endArrow=ERzeroToMany;startArrow=ERone;endFill=1;startFill=0;entryX=0;entryY=0.5;entryDx=0;entryDy=0;" edge="1" parent="1">
          <mxGeometry width="100" height="100" relative="1" as="geometry">
            <mxPoint x="-540" y="1030" as="sourcePoint" />
            <mxPoint x="660" y="1545" as="targetPoint" />
          </mxGeometry>
        </mxCell>
        <mxCell id="xjSPEm2n4XkuTSJkwCVt-201" value="" style="edgeStyle=entityRelationEdgeStyle;endArrow=ERzeroToMany;startArrow=ERone;endFill=1;startFill=0;entryX=-0.015;entryY=0.962;entryDx=0;entryDy=0;entryPerimeter=0;" edge="1" parent="1" target="xjSPEm2n4XkuTSJkwCVt-133">
          <mxGeometry width="100" height="100" relative="1" as="geometry">
            <mxPoint x="-540" y="1030" as="sourcePoint" />
            <mxPoint x="105" y="918" as="targetPoint" />
          </mxGeometry>
        </mxCell>
        <mxCell id="xjSPEm2n4XkuTSJkwCVt-202" value="" style="edgeStyle=entityRelationEdgeStyle;endArrow=ERzeroToMany;startArrow=ERone;endFill=1;startFill=0;entryX=-0.015;entryY=0.291;entryDx=0;entryDy=0;entryPerimeter=0;" edge="1" parent="1" target="xjSPEm2n4XkuTSJkwCVt-109">
          <mxGeometry width="100" height="100" relative="1" as="geometry">
            <mxPoint x="-530" y="1030" as="sourcePoint" />
            <mxPoint x="115" y="928" as="targetPoint" />
          </mxGeometry>
        </mxCell>
        <mxCell id="xjSPEm2n4XkuTSJkwCVt-203" value="" style="edgeStyle=entityRelationEdgeStyle;endArrow=ERzeroToMany;startArrow=ERone;endFill=1;startFill=0;" edge="1" parent="1">
          <mxGeometry width="100" height="100" relative="1" as="geometry">
            <mxPoint x="-540" y="1020" as="sourcePoint" />
            <mxPoint x="60" y="1810" as="targetPoint" />
          </mxGeometry>
        </mxCell>
        <mxCell id="xjSPEm2n4XkuTSJkwCVt-204" value="" style="edgeStyle=entityRelationEdgeStyle;endArrow=ERzeroToMany;startArrow=ERone;endFill=1;startFill=0;" edge="1" parent="1">
          <mxGeometry width="100" height="100" relative="1" as="geometry">
            <mxPoint x="-540" y="1030" as="sourcePoint" />
            <mxPoint x="60" y="2010" as="targetPoint" />
          </mxGeometry>
        </mxCell>
        <mxCell id="xjSPEm2n4XkuTSJkwCVt-205" value="" style="edgeStyle=entityRelationEdgeStyle;endArrow=ERzeroToMany;startArrow=ERone;endFill=1;startFill=0;" edge="1" parent="1">
          <mxGeometry width="100" height="100" relative="1" as="geometry">
            <mxPoint x="-540" y="1030" as="sourcePoint" />
            <mxPoint x="60" y="2250" as="targetPoint" />
          </mxGeometry>
        </mxCell>
        <mxCell id="xjSPEm2n4XkuTSJkwCVt-206" value="" style="edgeStyle=entityRelationEdgeStyle;endArrow=ERzeroToMany;startArrow=ERone;endFill=1;startFill=0;" edge="1" parent="1">
          <mxGeometry width="100" height="100" relative="1" as="geometry">
            <mxPoint x="-540" y="1030" as="sourcePoint" />
            <mxPoint x="60" y="2460" as="targetPoint" />
          </mxGeometry>
        </mxCell>
      </root>
    </mxGraphModel>
  </diagram>
</mxfile>
